<svg width="30" height="30" viewBox="0 0 30 30" fill="none" xmlns="http://www.w3.org/2000/svg">
<path d="M27.5 25H2.5C1.12125 25 0 23.8788 0 22.5V7.5C0 6.12125 1.12125 5 2.5 5H27.5C28.8788 5 30 6.12125 30 7.5V22.5C30 23.8788 28.8788 25 27.5 25ZM2.5 6.25C1.81062 6.25 1.25 6.81062 1.25 7.5V22.5C1.25 23.1894 1.81062 23.75 2.5 23.75H27.5C28.1894 23.75 28.75 23.1894 28.75 22.5V7.5C28.75 6.81062 28.1894 6.25 27.5 6.25H2.5Z" fill="#E44D1F"/>
<path d="M15.0001 18.2444L4.03577 11.15C3.89653 11.06 3.79875 10.9184 3.76394 10.7563C3.72912 10.5942 3.76013 10.4249 3.85014 10.2856C3.94015 10.1464 4.08178 10.0486 4.24388 10.0138C4.40599 9.979 4.57528 10.01 4.71452 10.1L15.0001 16.7556L25.2858 10.1C25.425 10.01 25.5943 9.979 25.7564 10.0138C25.9185 10.0486 26.0601 10.1464 26.1501 10.2856C26.2401 10.4249 26.2712 10.5942 26.2363 10.7563C26.2015 10.9184 26.1038 11.06 25.9645 11.15L15.0001 18.2444ZM3.75077 21.25C3.61656 21.2502 3.48588 21.2071 3.37803 21.1273C3.27018 21.0474 3.19091 20.9349 3.15194 20.8065C3.11296 20.6781 3.11636 20.5406 3.16162 20.4142C3.20688 20.2879 3.29161 20.1795 3.40327 20.105L9.02827 16.355C9.09655 16.3095 9.17314 16.2778 9.25367 16.2619C9.33419 16.2459 9.41706 16.246 9.49756 16.262C9.57806 16.2781 9.6546 16.3099 9.72281 16.3556C9.79103 16.4012 9.84959 16.4599 9.89514 16.5281C9.94069 16.5964 9.97235 16.673 9.9883 16.7535C10.0043 16.8341 10.0042 16.9169 9.98811 16.9974C9.97204 17.0779 9.94026 17.1545 9.89461 17.2227C9.84895 17.2909 9.7903 17.3495 9.72202 17.395L4.09702 21.145C3.99441 21.2133 3.87399 21.2498 3.75077 21.25ZM26.2495 21.25C26.1308 21.25 26.0101 21.2156 25.9033 21.145L20.2783 17.395C20.21 17.3495 20.1513 17.2909 20.1057 17.2227C20.06 17.1545 20.0282 17.0779 20.0122 16.9974C19.9961 16.9169 19.996 16.8341 20.012 16.7535C20.0279 16.673 20.0596 16.5964 20.1051 16.5281C20.1507 16.4599 20.2092 16.4012 20.2775 16.3556C20.3457 16.3099 20.4222 16.2781 20.5027 16.262C20.5832 16.246 20.6661 16.2459 20.7466 16.2619C20.8271 16.2778 20.9037 16.3095 20.972 16.355L26.597 20.105C26.7087 20.1795 26.7934 20.2879 26.8387 20.4142C26.8839 20.5406 26.8873 20.6781 26.8483 20.8065C26.8094 20.9349 26.7301 21.0474 26.6223 21.1273C26.5144 21.2071 26.3837 21.2502 26.2495 21.25Z" fill="#E44D1F"/>
</svg>
