<svg width="140" height="60" viewBox="0 0 140 60" fill="none" xmlns="http://www.w3.org/2000/svg">
<g clip-path="url(#clip0_203_456)">
<path d="M10.3625 1.95523C10.3625 1.95523 7.79757 3.06001 6.41222 4.30786C5.01894 5.5557 12.0407 39.2396 12.0407 39.2396C12.0407 39.2396 13.719 41.5843 15.0331 42.0294C16.3472 42.4745 23.2819 46.7744 23.2819 46.7744C23.2819 46.7744 26.583 47.8236 29.5833 47.609C32.5835 47.3864 34.9189 16.1982 34.9189 16.1982C34.9189 16.1982 35.3543 15.3159 33.6047 11.4293C31.8473 7.53477 14.756 0.49278 10.3625 1.95523Z" fill="white"/>
<path fill-rule="evenodd" clip-rule="evenodd" d="M40.3732 9.15618C30.5253 0.580209 18.5242 -2.32879 10.3625 1.95523C10.2041 6.43794 12.5474 10.7776 15.9039 13.9727C16.2839 14.3383 16.6797 14.6801 17.0834 15.0139C18.9754 16.7386 21.3424 18.058 23.7094 18.8449C22.6565 15.6815 22.134 11.9857 25.0235 9.61717C26.0763 9.09259 27.3904 9.09259 28.1742 9.87945C30.8024 12.5182 28.9579 15.9438 27.905 18.8449C28.6966 18.3124 29.7495 18.3124 30.644 17.5891C31.0636 17.3347 31.4753 17.0645 31.8711 16.7863C33.9451 15.4113 35.7897 13.8296 37.3254 12.1049C38.1883 11.1352 39.3124 10.1656 40.3653 9.14028" fill="#FCB246"/>
<path fill-rule="evenodd" clip-rule="evenodd" d="M15.2626 39.6847C14.5264 40.3365 13.8377 41.0121 13.1648 41.6956C16.4501 44.0085 19.8937 45.7094 23.2819 46.7744C22.1657 44.2072 20.8199 41.7433 18.8804 39.5814C18.54 39.343 18.1838 39.1681 17.8038 39.0807C17.4238 38.9853 17.028 38.9853 16.6005 39.0807C16.173 39.176 15.7297 39.3748 15.2547 39.6927" fill="#D22128"/>
<path fill-rule="evenodd" clip-rule="evenodd" d="M10.2595 37.7454C11.3362 38.9773 12.4603 40.1298 13.6081 41.2108C15.5001 37.6262 17.1309 33.9144 18.0967 29.8927C18.16 29.5668 18.2075 29.233 18.255 28.8992C18.3421 28.2316 18.3975 27.556 18.4133 26.8804C18.4133 26.3081 18.3975 25.7359 18.35 25.1636C18.0492 21.1498 16.6243 17.1678 14.0831 13.6707C13.8219 13.2017 13.5527 12.7328 13.2836 12.2639C10.7583 7.97192 7.71049 3.92635 4.4648 0.357662C-3.2061 8.77467 -0.815376 25.0603 10.2595 37.7454Z" fill="#E91B47"/>
<path fill-rule="evenodd" clip-rule="evenodd" d="M26.0763 51.9645C26.1951 52.505 26.3217 53.0454 26.4405 53.578C26.5355 53.9833 26.6226 54.3887 26.7096 54.794C27.248 56.3757 27.5171 58.1402 27.8892 59.8092C33.4148 60.5087 38.5366 59.3165 42.3206 55.9862C51.4006 47.9905 49.3424 30.7272 37.7212 17.4222C36.8029 16.373 35.853 15.3795 34.8793 14.4416C32.5677 16.8738 30.4857 19.5999 28.4433 22.2626C28.1187 22.6838 27.8021 23.105 27.4775 23.5183C27.1767 23.9555 26.8759 24.4085 26.583 24.8695C26.2822 25.3305 25.9972 25.7994 25.7122 26.2843C19.7275 34.2403 24.4535 43.476 26.0684 51.9645" fill="#EF5B2A"/>
<path d="M53.0393 5.67492V14.3542H52.406V5.67492H53.0393Z" fill="#D22128"/>
<path d="M55.2954 14.3542V5.67492H55.8892L59.7998 11.016C60.5915 12.097 61.106 12.7805 61.5572 13.5515L61.581 13.5276C61.4939 12.5262 61.4781 11.4929 61.4781 10.1576V5.67492H62.0956V14.3542H61.5177L57.7337 9.18797C57.0054 8.18651 56.3325 7.27249 55.8733 6.50152L55.8338 6.52537C55.8971 7.50298 55.9129 8.4329 55.9129 9.72049V14.3542H55.2954Z" fill="#201D1D"/>
<path d="M64.0509 13.3369C64.613 13.7263 65.3571 13.9807 66.1962 13.9807C67.5974 13.9807 68.4444 13.2335 68.4444 12.1606C68.4444 11.167 67.9457 10.6027 66.497 10.1417C64.7634 9.58538 64.0746 8.878 64.0746 7.74937C64.0746 6.47768 65.1671 5.52391 66.7583 5.52391C67.6686 5.52391 68.3494 5.74646 68.6819 5.96105L68.4365 6.48563C68.1911 6.31872 67.5736 6.03259 66.7266 6.03259C65.175 6.03259 64.6921 6.97046 64.6921 7.65399C64.6921 8.58392 65.2463 9.10849 66.6395 9.56153C68.2149 10.0782 69.0619 10.6981 69.0619 12.097C69.0619 13.2971 68.1911 14.5052 66.125 14.5052C65.3017 14.5052 64.3438 14.2509 63.8134 13.8614L64.0588 13.3369H64.0509Z" fill="#201D1D"/>
<path d="M72.6559 6.20745H69.434V5.68287H76.5032V6.20745H73.2813V14.3542H72.6559V6.20745Z" fill="#201D1D"/>
<path d="M77.9915 5.67492V14.3542H77.3661V5.67492H77.9915Z" fill="#201D1D"/>
<path d="M82.0763 6.20745H78.8623V5.68287H85.9237V6.20745H82.7017V14.3542H82.0684V6.20745H82.0763Z" fill="#201D1D"/>
<path d="M87.4119 5.67492V10.6822C87.4119 13.0428 88.5756 13.9807 90.0164 13.9807C91.6234 13.9807 92.7633 12.9792 92.7633 10.6822V5.67492H93.3887V10.6266C93.3887 13.4243 91.8134 14.5052 89.9768 14.5052C88.2986 14.5052 86.7865 13.5276 86.7865 10.6902V5.66698H87.4198L87.4119 5.67492Z" fill="#201D1D"/>
<path d="M97.4815 6.20745H94.2595V5.68287H101.321V6.20745H98.1069V14.3542H97.4736V6.20745H97.4815Z" fill="#201D1D"/>
<path d="M105.588 14.5052C103.126 14.5052 101.289 12.6613 101.289 10.1258C101.289 7.39965 103.213 5.51596 105.675 5.51596C108.137 5.51596 109.973 7.39965 109.973 9.89535C109.973 12.8918 107.844 14.5052 105.596 14.5052H105.588ZM105.604 13.9966C107.884 13.9966 109.316 12.2559 109.316 9.95099C109.316 8.06729 108.097 6.04053 105.651 6.04053C103.205 6.04053 101.946 7.97192 101.946 10.1099C101.946 12.248 103.34 13.9966 105.596 13.9966H105.604Z" fill="#201D1D"/>
<path d="M114.66 5.79414C115.428 5.69082 116.291 5.60339 117.248 5.60339C119.085 5.60339 120.478 6.10412 121.286 6.9943C122.006 7.78116 122.323 8.70314 122.323 9.82382C122.323 10.8173 122.03 12.0254 121.127 12.9951C120.296 13.8853 118.832 14.4337 116.9 14.4337C116.116 14.4337 115.396 14.4178 114.652 14.3542V5.79414H114.66ZM115.293 13.8296C115.705 13.8932 116.314 13.9091 117.011 13.9091C120.296 13.9091 121.69 12.097 121.69 9.83971C121.713 7.71758 120.36 6.12796 117.201 6.12796C116.37 6.12796 115.736 6.20744 115.293 6.29487V13.8296Z" fill="#201D1D"/>
<path d="M128.418 10.0384H124.571V13.8217H128.854V14.3463H123.938V5.67492H128.632V6.1995H124.563V9.50589H128.411V10.0384H128.418Z" fill="#201D1D"/>
<path d="M57.9632 22.6838C57.8999 21.738 57.8128 20.514 57.8128 19.8304H57.797C57.5437 20.514 57.2508 21.2452 56.847 22.2069L55.3825 25.6802H55.0342L53.6647 22.2546C53.2689 21.2611 52.976 20.506 52.7701 19.8304H52.7543C52.7226 20.5696 52.6752 21.73 52.596 22.7712L52.3743 25.6802H51.9231L52.4297 19.3138H52.9522L54.4721 23.105C54.7967 23.8999 55.0342 24.5595 55.2242 25.1318H55.24C55.4063 24.5913 55.6675 23.9555 56.0237 23.113L57.6228 19.3059H58.1691L58.6203 25.6723H58.1691L57.9712 22.6679L57.9632 22.6838Z" fill="#D22128"/>
<path d="M63.3384 22.5169H60.5123V25.2908H63.6551V25.6802H60.0531V19.3138H63.4967V19.7033H60.5123V22.1354H63.3384V22.5169Z" fill="#201D1D"/>
<path d="M64.8584 19.4092C65.4204 19.3377 66.0537 19.2661 66.7583 19.2661C68.104 19.2661 69.1252 19.6317 69.719 20.2835C70.2494 20.8637 70.4789 21.5393 70.4789 22.3659C70.4789 23.0892 70.2652 23.9793 69.6081 24.6867C68.9986 25.3385 67.922 25.7438 66.5049 25.7438C65.935 25.7438 65.4046 25.7359 64.8584 25.6882V19.4092ZM65.3175 25.2987C65.6183 25.3464 66.0695 25.3544 66.5762 25.3544C68.9827 25.3544 70.0119 24.0191 70.0119 22.3738C70.0277 20.816 69.0302 19.6556 66.7187 19.6556C66.1091 19.6556 65.65 19.7112 65.3175 19.7748V25.2987Z" fill="#201D1D"/>
<path d="M72.1255 19.3218V25.6882H71.6664V19.3218H72.1255Z" fill="#201D1D"/>
<path d="M78.6406 25.4259C78.2844 25.6087 77.564 25.7915 76.6616 25.7915C74.9516 25.7915 73.313 24.7424 73.313 22.5248C73.313 20.8637 74.5321 19.2025 76.9149 19.2025C77.8728 19.2025 78.4111 19.4171 78.6248 19.5205L78.4744 19.9099C78.0944 19.7192 77.5324 19.5841 76.9386 19.5841C74.8804 19.5841 73.788 20.8398 73.788 22.5566C73.788 24.1224 74.8329 25.3861 76.8278 25.3861C77.4532 25.3861 78.0707 25.2669 78.5061 25.0444L78.6486 25.41L78.6406 25.4259Z" fill="#201D1D"/>
<path d="M80.2635 19.3218V25.6882H79.8044V19.3218H80.2635Z" fill="#201D1D"/>
<path d="M81.918 25.6802V19.3138H82.3534L85.2191 23.2322C85.8049 24.027 86.177 24.5278 86.5095 25.0921L86.5253 25.0762C86.462 24.337 86.4461 23.5819 86.4461 22.6043V19.3218H86.8974V25.6882H86.4778L83.7071 21.9049C83.1688 21.1657 82.6859 20.4981 82.3455 19.9338L82.3217 19.9497C82.3692 20.665 82.3771 21.3485 82.3771 22.2943V25.6961H81.9259L81.918 25.6802Z" fill="#201D1D"/>
<path d="M89.3673 23.4468L88.4886 25.6882H88.0136L90.5706 19.3218H91.0218L93.5629 25.6882H93.08L92.1855 23.4468H89.3673ZM92.0351 23.0574L91.1405 20.816C90.9743 20.3948 90.8872 20.1166 90.7922 19.8066H90.7764C90.6814 20.1245 90.5785 20.4107 90.4281 20.7922L89.5256 23.0574H92.0351Z" fill="#201D1D"/>
<path d="M96.8323 19.3218H100.276V19.7112H97.2915V22.2149H100.015V22.6043H97.2915V25.6961H96.8244V19.3297L96.8323 19.3218Z" fill="#201D1D"/>
<path d="M103.11 17.8911L101.867 18.98H101.487L102.39 17.8911H103.102H103.11ZM102.089 19.3218V25.6882H101.63V19.3218H102.089Z" fill="#201D1D"/>
<path d="M103.522 24.9411C103.933 25.2272 104.48 25.41 105.089 25.41C106.118 25.41 106.736 24.8616 106.736 24.0747C106.736 23.3514 106.372 22.9381 105.303 22.5884C104.036 22.1831 103.53 21.6664 103.53 20.8319C103.53 19.894 104.329 19.2025 105.493 19.2025C106.158 19.2025 106.656 19.3615 106.902 19.5205L106.72 19.9099C106.538 19.7907 106.094 19.5761 105.469 19.5761C104.329 19.5761 103.973 20.2676 103.973 20.7683C103.973 21.4518 104.377 21.8334 105.406 22.1672C106.561 22.5407 107.179 23.0017 107.179 24.027C107.179 24.9093 106.538 25.7915 105.026 25.7915C104.424 25.7915 103.72 25.6087 103.332 25.3226L103.514 24.9331L103.522 24.9411Z" fill="#201D1D"/>
<path d="M108.952 19.3218V25.6882H108.493V19.3218H108.952Z" fill="#201D1D"/>
<path d="M115.467 25.4259C115.111 25.6087 114.399 25.7915 113.488 25.7915C111.778 25.7915 110.14 24.7424 110.14 22.5248C110.14 20.8637 111.367 19.2025 113.742 19.2025C114.699 19.2025 115.238 19.4171 115.451 19.5205L115.301 19.9099C114.921 19.7192 114.359 19.5841 113.765 19.5841C111.707 19.5841 110.615 20.8398 110.615 22.5566C110.615 24.1224 111.66 25.3861 113.654 25.3861C114.272 25.3861 114.897 25.2669 115.333 25.0444L115.475 25.41L115.467 25.4259Z" fill="#201D1D"/>
<path d="M117.439 23.4468L116.56 25.6882H116.077L118.634 19.3218H119.085L121.618 25.6882H121.135L120.241 23.4468H117.423H117.439ZM120.098 23.0574L119.204 20.816C119.03 20.3948 118.951 20.1166 118.856 19.8066H118.84C118.745 20.1245 118.634 20.4107 118.491 20.7922L117.589 23.0574H120.098Z" fill="#201D1D"/>
<path d="M128.181 22.5169H125.355V25.2908H128.498V25.6802H124.896V19.3138H128.339V19.7033H125.355V22.1354H128.181V22.5169Z" fill="#201D1D"/>
<path d="M52.2556 32.5712C52.8176 32.452 53.6251 32.3884 54.393 32.3884C55.5883 32.3884 56.3562 32.6109 56.8945 33.0958C57.3299 33.4852 57.5753 34.0734 57.5753 34.741C57.5753 35.8855 56.855 36.6486 55.9446 36.9585V36.9983C56.6096 37.2288 57.0133 37.8487 57.2191 38.7469C57.4962 39.955 57.702 40.7895 57.8841 41.1313H56.7283C56.5858 40.8769 56.3958 40.1378 56.1504 39.0568C55.8892 37.8567 55.43 37.4116 54.4167 37.3718H53.3639V41.1313H52.2477V32.5712H52.2556ZM53.3718 36.5214H54.5117C55.7071 36.5214 56.4591 35.8617 56.4591 34.8761C56.4591 33.7555 55.6517 33.2627 54.4721 33.2547C53.9338 33.2547 53.5459 33.3104 53.3718 33.3581V36.5293V36.5214Z" fill="#D22128"/>
<path d="M63.6313 37.0619H60.2669V40.1934H64.0113V41.1313H59.1507V32.452H63.8213V33.3899H60.2669V36.1319H63.6313V37.0619Z" fill="#D22128"/>
<path d="M66.8612 38.4051L65.9666 41.1313H64.8109L67.7478 32.452H69.0936L72.0464 41.1313H70.851L69.9248 38.4051H66.8612ZM69.6952 37.5308L68.8482 35.0351C68.6582 34.4708 68.5236 33.9542 68.3969 33.4534H68.3732C68.2465 33.9701 68.104 34.4946 67.9378 35.0272L67.0907 37.5387H69.6952V37.5308Z" fill="#D22128"/>
<path d="M73.3051 32.5712C73.7959 32.4679 74.5637 32.3884 75.3475 32.3884C76.4637 32.3884 77.184 32.5792 77.7224 33.0163C78.1736 33.3501 78.4427 33.8667 78.4427 34.5503C78.4427 35.3848 77.8886 36.124 76.9782 36.4578V36.4817C77.8015 36.6883 78.7594 37.3718 78.7594 38.6594C78.7594 39.4065 78.4665 39.9709 78.0311 40.4001C77.4295 40.9564 76.4557 41.2108 75.0387 41.2108C74.2708 41.2108 73.6771 41.1551 73.3051 41.1074V32.5712ZM74.4213 36.124H75.4345C76.6141 36.124 77.3028 35.504 77.3028 34.6695C77.3028 33.6521 76.5349 33.2547 75.4029 33.2547C74.8883 33.2547 74.5954 33.2945 74.4133 33.3342V36.1319L74.4213 36.124ZM74.4213 40.2808C74.6429 40.3206 74.9596 40.3365 75.3554 40.3365C76.5112 40.3365 77.5719 39.9073 77.5719 38.6515C77.5719 37.4672 76.5587 36.9744 75.3395 36.9744H74.4133V40.2808H74.4213Z" fill="#201D1D"/>
<path d="M81.3797 32.452V41.1313H80.2635V32.452H81.3797Z" fill="#201D1D"/>
<path d="M83.3271 32.452H84.4433V40.1855H88.1323V41.1233H83.3271V32.444V32.452Z" fill="#201D1D"/>
<path d="M90.4914 32.452V41.1313H89.3752V32.452H90.4914Z" fill="#201D1D"/>
<path d="M94.0775 33.4057H91.4492V32.452H97.8456V33.4057H95.2016V41.1313H94.0696V33.4057H94.0775Z" fill="#201D1D"/>
<path d="M99.2468 38.4051L98.3523 41.1313H97.1965L100.133 32.452H101.479L104.424 41.1313H103.229L102.303 38.4051H99.2389H99.2468ZM102.081 37.5308L101.234 35.0351C101.044 34.4708 100.917 33.9542 100.79 33.4534H100.767C100.64 33.9701 100.498 34.4946 100.331 35.0272L99.4843 37.5387H102.089L102.081 37.5308Z" fill="#201D1D"/>
<path d="M111.549 40.8451C111.153 41.0518 110.369 41.2425 109.293 41.2584L108.984 41.7751C109.459 41.8704 109.878 42.2122 109.878 42.7447C109.878 43.4919 109.229 43.7859 108.556 43.7859C108.224 43.7859 107.868 43.6985 107.646 43.5634L107.828 42.9832C108.018 43.0865 108.271 43.1501 108.533 43.1501C108.826 43.1501 109.087 43.0309 109.087 42.7527C109.087 42.4189 108.691 42.2758 108.081 42.2122L108.62 41.2187C106.514 40.9723 104.994 39.486 104.994 36.8711C104.994 34.2562 106.823 32.3089 109.506 32.3089C110.583 32.3089 111.264 32.5394 111.557 32.6984L111.288 33.6124C110.86 33.4057 110.258 33.2547 109.538 33.2547C107.511 33.2547 106.166 34.5582 106.166 36.8314C106.166 38.9535 107.385 40.3206 109.491 40.3206C110.171 40.3206 110.86 40.1775 111.311 39.9629L111.541 40.8531L111.549 40.8451Z" fill="#201D1D"/>
<path d="M114.454 38.4051L113.56 41.1313H112.404L115.341 32.452H116.686L119.631 41.1313H118.436L117.518 38.4051H114.446H114.454ZM114.47 31.9274C114.446 31.1405 114.779 30.616 115.341 30.616C115.626 30.616 115.832 30.7273 116.101 30.8703C116.306 30.9895 116.512 31.1008 116.718 31.1008C116.908 31.1008 117.027 31.0134 117.059 30.6001H117.652C117.66 31.4108 117.383 31.8479 116.789 31.8479C116.52 31.8479 116.291 31.7446 116.006 31.6015C115.76 31.4744 115.586 31.3551 115.404 31.3551C115.198 31.3551 115.095 31.5777 115.072 31.9195H114.47V31.9274ZM117.288 37.5308L116.441 35.0351C116.251 34.4708 116.124 33.9542 115.99 33.4534H115.966C115.839 33.9701 115.697 34.4946 115.531 35.0272L114.684 37.5387H117.288V37.5308Z" fill="#201D1D"/>
<path d="M128.102 36.7042C128.102 39.6927 126.289 41.2743 124.088 41.2743C121.887 41.2743 120.201 39.494 120.201 36.8711C120.201 34.1131 121.903 32.3089 124.215 32.3089C126.526 32.3089 128.102 34.1211 128.102 36.6962V36.7042ZM121.397 36.8473C121.397 38.6992 122.394 40.3603 124.159 40.3603C125.925 40.3603 126.93 38.723 126.93 36.7598C126.93 35.0351 126.036 33.2309 124.175 33.2309C122.315 33.2309 121.405 34.9477 121.405 36.8473H121.397Z" fill="#201D1D"/>
<path d="M90.5705 49.1111V51.7658H94.3624V49.1111H94.7978V55.1835H94.3624V52.1394H90.5705V55.1835H90.1351V49.1111H90.5705Z" fill="#D22128"/>
<path d="M101.012 54.9371C100.672 55.104 99.9909 55.2868 99.1201 55.2868C97.4894 55.2868 95.9299 54.2853 95.9299 52.1711C95.9299 50.5895 97.0936 48.9999 99.3655 48.9999C100.284 48.9999 100.79 49.2065 100.996 49.3019L100.846 49.6675C100.49 49.4847 99.9514 49.3655 99.3893 49.3655C97.4261 49.3655 96.3811 50.5656 96.3811 52.2029C96.3811 53.6972 97.3786 54.9053 99.2785 54.9053C99.8722 54.9053 100.466 54.794 100.878 54.5794L101.012 54.9291V54.9371Z" fill="#D22128"/>
<path d="M102.493 49.1111H105.778V49.4768H102.936V51.8612H105.532V52.2268H102.936V55.1755H102.493V49.1032V49.1111Z" fill="#D22128"/>
<path d="M112.427 52.3142C112.364 51.4161 112.285 50.2477 112.285 49.596H112.269C112.024 50.2477 111.747 50.9471 111.359 51.8612L109.958 55.1755H109.625L108.319 51.9089C107.947 50.963 107.662 50.2398 107.464 49.596H107.448C107.424 50.2954 107.377 51.4081 107.298 52.4016L107.084 55.1755H106.649L107.131 49.1032H107.63L109.079 52.7275C109.38 53.4826 109.617 54.1105 109.799 54.6668H109.815C109.973 54.1502 110.219 53.5382 110.559 52.7355L112.087 49.1111H112.61L113.037 55.1835H112.61L112.42 52.3142H112.427Z" fill="#D22128"/>
<path d="M114.858 49.1111V52.6162C114.858 54.2615 115.673 54.9212 116.679 54.9212C117.803 54.9212 118.594 54.2218 118.594 52.6162V49.1111H119.03V52.5765C119.03 54.5317 117.929 55.2868 116.647 55.2868C115.475 55.2868 114.414 54.6033 114.414 52.6162V49.1032H114.858V49.1111Z" fill="#D22128"/>
<path d="M120.407 54.4681C120.803 54.7384 121.325 54.9212 121.903 54.9212C122.877 54.9212 123.471 54.3966 123.471 53.6495C123.471 52.958 123.122 52.5606 122.109 52.2347C120.898 51.8453 120.415 51.3525 120.415 50.5577C120.415 49.6675 121.175 48.9999 122.291 48.9999C122.932 48.9999 123.407 49.1509 123.637 49.3019L123.471 49.6675C123.297 49.5562 122.869 49.3575 122.275 49.3575C121.191 49.3575 120.85 50.0172 120.85 50.4862C120.85 51.1379 121.238 51.5035 122.212 51.8214C123.312 52.1791 123.906 52.6083 123.906 53.5939C123.906 54.4284 123.297 55.2788 121.848 55.2788C121.278 55.2788 120.605 55.096 120.233 54.8338L120.407 54.4602V54.4681Z" fill="#D22128"/>
<path d="M125.141 49.1747C125.529 49.1111 126.02 49.0635 126.574 49.0635C127.381 49.0635 127.959 49.2622 128.323 49.6039C128.632 49.8901 128.806 50.2875 128.806 50.7802C128.806 51.3128 128.648 51.7261 128.339 52.036C127.928 52.4732 127.231 52.6957 126.439 52.6957C126.123 52.6957 125.83 52.6878 125.576 52.6083V55.1914H125.133V49.1827L125.141 49.1747ZM125.584 52.2109C125.838 52.2904 126.162 52.3222 126.495 52.3222C127.698 52.3222 128.371 51.7737 128.371 50.8359C128.371 49.7867 127.54 49.4291 126.566 49.4291C126.107 49.4291 125.759 49.4768 125.576 49.5085V52.2109H125.584Z" fill="#D22128"/>
<path d="M134.403 40.559H138.211V38.3574H138.662V41.0438H134.403V40.559Z" fill="#201D1D"/>
<path d="M135.678 35.6392H138.654V36.0763L138.266 36.0445C138.559 36.2114 138.71 36.5293 138.71 37.0301C138.71 37.7295 138.361 38.0792 137.665 38.0792H135.686V37.6421H137.665C137.934 37.6421 138.116 37.5944 138.211 37.507C138.306 37.4195 138.345 37.2447 138.345 36.9824C138.345 36.6327 138.274 36.4022 138.148 36.275C138.013 36.1399 137.76 36.0843 137.396 36.0843H135.686V35.6471L135.678 35.6392Z" fill="#201D1D"/>
<path d="M137.586 32.8971V32.4599H137.744C138.385 32.4599 138.702 32.8732 138.702 33.7157C138.702 34.2562 138.599 34.6139 138.401 34.7808C138.195 34.9556 137.783 35.0431 137.15 35.0431C136.556 35.0431 136.161 34.9556 135.947 34.7808C135.741 34.6059 135.63 34.2721 135.63 33.7714C135.63 33.2706 135.701 32.9527 135.844 32.7779C135.986 32.595 136.256 32.5076 136.643 32.5076V32.9448H136.564C136.335 32.9448 136.176 33.0004 136.097 33.1196C136.018 33.2309 135.986 33.4614 135.986 33.8032C135.986 34.1449 136.058 34.3436 136.2 34.439C136.351 34.5344 136.675 34.5821 137.182 34.5821C137.688 34.5821 137.989 34.5264 138.124 34.4231C138.258 34.3198 138.322 34.0654 138.322 33.668C138.322 33.3342 138.282 33.1196 138.187 33.0322C138.092 32.9448 137.894 32.8971 137.562 32.8971" fill="#201D1D"/>
<path d="M135.678 29.845L138.828 30.6955C139.272 30.8147 139.58 30.9498 139.747 31.0929C139.913 31.2359 139.992 31.4505 139.992 31.7128C139.992 31.7684 139.992 31.84 139.976 31.9274H139.612C139.628 31.8638 139.636 31.8161 139.636 31.7764C139.652 31.538 139.454 31.3631 139.066 31.2518L138.773 31.1644C138.773 31.1644 138.725 31.1564 138.662 31.1405V31.3075L135.686 32.3884V31.9195L137.016 31.4585L137.673 31.228L138.005 31.1167L138.338 30.9975V30.9816L138.005 30.9021L137.673 30.8226L137.016 30.6557L135.686 30.3219V29.853L135.678 29.845Z" fill="#201D1D"/>
<path d="M134.403 23.415H138.662V23.8999H134.878H134.751V23.9158L134.846 23.9555C134.894 23.9793 134.934 23.9873 134.941 23.9952L135.139 24.0747L138.662 25.5292V26.014L135.179 27.4765L134.989 27.5639L134.894 27.6037C134.894 27.6037 134.839 27.6275 134.791 27.6434L134.902 27.6513H135.021H135.258H138.662V28.1362H134.403V27.3016L137.158 26.1571L137.601 25.9743L137.823 25.8789L138.037 25.7915L137.823 25.6882C137.72 25.6484 137.641 25.6166 137.601 25.6007L137.158 25.4179L134.403 24.2814V23.4309V23.415Z" fill="#201D1D"/>
<path d="M135.638 21.5154C135.638 20.967 135.733 20.6014 135.923 20.4424C136.113 20.2755 136.533 20.1961 137.174 20.1961C137.815 20.1961 138.227 20.2755 138.425 20.4424C138.615 20.6094 138.71 20.967 138.71 21.5154C138.71 22.0638 138.615 22.4215 138.425 22.5884C138.227 22.7553 137.815 22.8348 137.174 22.8348C136.533 22.8348 136.121 22.7553 135.923 22.5884C135.733 22.4215 135.638 22.0638 135.638 21.5154ZM136.002 21.5154C136.002 21.9049 136.066 22.1433 136.184 22.2387C136.311 22.3341 136.636 22.3738 137.166 22.3738C137.696 22.3738 138.021 22.3261 138.155 22.2387C138.282 22.1433 138.338 21.9049 138.338 21.5154C138.338 21.126 138.274 20.8875 138.155 20.7922C138.029 20.6968 137.704 20.6491 137.166 20.6491C136.628 20.6491 136.303 20.6968 136.184 20.7922C136.058 20.8875 136.002 21.126 136.002 21.5154Z" fill="#201D1D"/>
<path d="M135.678 19.6397V19.2184L136.081 19.2343V19.2184C135.789 19.0833 135.63 18.7575 135.63 18.2249C135.63 17.7957 135.701 17.5096 135.852 17.3586C136.002 17.2076 136.287 17.1281 136.715 17.1281H138.654V17.5652H136.636C136.382 17.5652 136.208 17.6129 136.121 17.7083C136.034 17.8037 135.994 17.9944 135.994 18.2726C135.994 18.8926 136.287 19.1946 136.857 19.1946H138.654V19.6317H135.678V19.6397Z" fill="#201D1D"/>
<path d="M135.678 14.8708H136.042V16.0233H137.863C138.179 16.0233 138.338 15.8803 138.338 15.5941C138.338 15.308 138.195 15.1729 137.91 15.1729H137.76L137.593 15.1649V14.7596H137.815C138.401 14.7596 138.694 15.0378 138.694 15.5941C138.694 16.1505 138.448 16.4605 137.966 16.4605H136.034V16.8738H135.67V16.4605H134.949V16.0233H135.67V14.8708H135.678Z" fill="#201D1D"/>
<path d="M135.638 13.2574C135.638 12.701 135.733 12.3434 135.923 12.1844C136.113 12.0175 136.533 11.938 137.174 11.938C137.815 11.938 138.227 12.0175 138.425 12.1844C138.615 12.3513 138.71 12.709 138.71 13.2574C138.71 13.8058 138.615 14.1635 138.425 14.3304C138.227 14.4973 137.815 14.5768 137.174 14.5768C136.533 14.5768 136.121 14.4973 135.923 14.3304C135.733 14.1635 135.638 13.8058 135.638 13.2574ZM136.002 13.2574C136.002 13.6468 136.066 13.8853 136.184 13.9807C136.311 14.076 136.636 14.1237 137.166 14.1237C137.696 14.1237 138.021 14.076 138.155 13.9807C138.282 13.8853 138.338 13.6468 138.338 13.2574C138.338 12.8679 138.274 12.6295 138.155 12.5341C138.029 12.4387 137.704 12.391 137.166 12.391C136.628 12.391 136.303 12.4387 136.184 12.5341C136.058 12.6295 136.002 12.8679 136.002 13.2574Z" fill="#201D1D"/>
<path d="M135.678 11.334V10.8968L136.018 10.9445H136.026C135.749 10.7617 135.606 10.4756 135.606 10.0782C135.606 9.52974 135.891 9.25156 136.453 9.25156H136.659V9.6887H136.588C136.509 9.6728 136.453 9.6728 136.43 9.6728C136.121 9.6728 135.971 9.83971 135.971 10.1735C135.971 10.6584 136.271 10.9048 136.873 10.9048H138.662V11.3419H135.686L135.678 11.334Z" fill="#201D1D"/>
<path d="M135.638 7.71758C135.638 7.16121 135.733 6.80355 135.923 6.63664C136.113 6.46973 136.533 6.39025 137.174 6.39025C137.815 6.39025 138.227 6.47768 138.425 6.63664C138.615 6.80355 138.71 7.16121 138.71 7.71758C138.71 8.27394 138.615 8.62366 138.425 8.79057C138.227 8.95748 137.815 9.03696 137.174 9.03696C136.533 9.03696 136.121 8.95748 135.923 8.79057C135.733 8.62366 135.638 8.266 135.638 7.71758ZM136.002 7.71758C136.002 8.10704 136.066 8.34548 136.184 8.44085C136.311 8.53623 136.636 8.58392 137.166 8.58392C137.696 8.58392 138.021 8.53623 138.155 8.44085C138.282 8.34548 138.338 8.10704 138.338 7.71758C138.338 7.32812 138.274 7.08173 138.155 6.9943C138.029 6.90688 137.704 6.85919 137.166 6.85919C136.628 6.85919 136.303 6.90688 136.184 6.9943C136.058 7.08968 136.002 7.32812 136.002 7.71758Z" fill="#201D1D"/>
<path d="M138.646 55.6365H134.229V53.5223C134.229 53.0454 134.324 52.7116 134.506 52.5129C134.696 52.3142 135.021 52.2188 135.488 52.2188C135.899 52.2188 136.176 52.2665 136.343 52.3778C136.509 52.4891 136.604 52.6878 136.659 52.9898H136.667C136.707 52.5209 136.984 52.2824 137.522 52.2824H138.654V52.7832H137.641C137.126 52.7832 136.865 53.0057 136.865 53.4587V55.1358H138.654V55.6365H138.646ZM136.43 55.1358V53.6892C136.43 53.3077 136.374 53.0454 136.256 52.9024C136.137 52.7673 135.923 52.6957 135.606 52.6957C135.203 52.6957 134.941 52.7514 134.823 52.8547C134.704 52.958 134.641 53.1806 134.641 53.5144V55.1358H136.43Z" fill="#201D1D"/>
<path d="M137.712 49.6119V49.1429H137.823C138.148 49.1429 138.369 49.2383 138.496 49.437C138.623 49.6357 138.686 49.9775 138.686 50.4703C138.686 51.0425 138.583 51.424 138.369 51.5989C138.163 51.7817 137.72 51.8691 137.055 51.8691C136.438 51.8691 136.026 51.7817 135.812 51.5989C135.599 51.4161 135.496 51.0664 135.496 50.5418C135.496 49.9695 135.591 49.588 135.773 49.4132C135.963 49.2383 136.343 49.1429 136.936 49.1429H137.174V51.3843C137.665 51.3843 137.973 51.3366 138.108 51.2253C138.243 51.122 138.306 50.8756 138.306 50.4941C138.306 50.1126 138.274 49.8901 138.211 49.7788C138.148 49.6675 138.013 49.6119 137.799 49.6119H137.696H137.712ZM136.826 49.6119H136.683C136.351 49.6119 136.129 49.6755 136.034 49.7788C135.931 49.8901 135.883 50.1285 135.883 50.4941C135.883 50.8597 135.947 51.0982 136.058 51.2094C136.176 51.3207 136.438 51.3763 136.833 51.3763V49.6119H136.826Z" fill="#201D1D"/>
<path d="M134.221 46.0909H138.638V46.5519L138.235 46.528V46.5439C138.528 46.687 138.678 47.0208 138.678 47.5454C138.678 48.0223 138.559 48.3481 138.33 48.523C138.1 48.6978 137.673 48.7853 137.039 48.7853C136.461 48.7853 136.05 48.6978 135.828 48.523C135.606 48.3481 135.488 48.0302 135.488 47.5772C135.488 47.0128 135.638 46.6711 135.931 46.5678L134.221 46.5598V46.0988V46.0909ZM135.876 47.4579C135.876 47.7997 135.955 48.0223 136.105 48.1335C136.263 48.2448 136.572 48.3004 137.047 48.3004C137.562 48.3004 137.902 48.2448 138.068 48.1415C138.227 48.0302 138.314 47.7997 138.314 47.4579C138.314 47.0844 138.235 46.838 138.068 46.7267C137.902 46.6154 137.546 46.5598 137.008 46.5598C136.564 46.5598 136.263 46.6234 136.113 46.7506C135.963 46.8777 135.883 47.1162 135.883 47.4738" fill="#201D1D"/>
<path d="M137.712 43.3965V42.9275H137.823C138.148 42.9275 138.369 43.0229 138.496 43.2216C138.623 43.4124 138.686 43.7621 138.686 44.2549C138.686 44.8271 138.583 45.2007 138.369 45.3835C138.163 45.5583 137.72 45.6537 137.055 45.6537C136.438 45.6537 136.026 45.5663 135.812 45.3835C135.599 45.2007 135.496 44.851 135.496 44.3264C135.496 43.7541 135.591 43.3806 135.773 43.2057C135.963 43.0229 136.343 42.9355 136.936 42.9355H137.174V45.1768C137.665 45.1768 137.973 45.1212 138.108 45.0179C138.243 44.9146 138.306 44.6682 138.306 44.2867C138.306 43.9052 138.274 43.6747 138.211 43.5713C138.148 43.4601 138.013 43.4124 137.799 43.4124H137.696L137.712 43.3965ZM136.826 43.3965H136.683C136.351 43.3965 136.129 43.4521 136.034 43.5634C135.931 43.6826 135.883 43.9131 135.883 44.2867C135.883 44.6602 135.947 44.8907 136.058 45.002C136.176 45.1133 136.438 45.1689 136.833 45.1689V43.4044L136.826 43.3965Z" fill="#201D1D"/>
</g>
<defs>
<clipPath id="clip0_203_456">
<rect width="140" height="60" fill="white"/>
</clipPath>
</defs>
</svg>
