<svg width="65" height="67" viewBox="0 0 65 67" fill="none" xmlns="http://www.w3.org/2000/svg">
<g clip-path="url(#clip0_203_522)">
<path d="M14.5542 63.391H16.8359V58.7894H21.2227V56.6163H16.8359V53.7686H21.9531V51.5907H14.5542V63.391Z" fill="#03A9AA"/>
<path d="M33.0561 54.3131C32.4069 54.3131 31.8532 54.4625 31.3902 54.7661C30.9271 55.0696 30.5548 55.4599 30.2684 55.9369C30.0059 55.4165 29.6383 55.0118 29.1562 54.7323C28.6741 54.448 28.1156 54.3083 27.4807 54.3083C26.97 54.3083 26.5069 54.4143 26.0916 54.6215C25.6764 54.8335 25.3374 55.1274 25.0701 55.5033V54.5685H22.8457V63.3814H25.0701V58.3799C25.0701 57.7824 25.2277 57.3054 25.5379 56.9536C25.8482 56.6019 26.273 56.4284 26.8077 56.4284C27.3423 56.4284 27.7433 56.6019 28.0535 56.9536C28.3638 57.3054 28.5166 57.7776 28.5166 58.3799V63.3814H30.741V58.3799C30.741 57.7824 30.8985 57.3054 31.2088 56.9536C31.5191 56.6019 31.9439 56.4284 32.4785 56.4284C33.0131 56.4284 33.4141 56.6019 33.7244 56.9536C34.0347 57.3054 34.1874 57.7776 34.1874 58.3799V63.3814H36.4118V58.0426C36.4118 56.8813 36.1063 55.9658 35.5001 55.3009C34.8939 54.636 34.0776 54.3035 33.0561 54.3035" fill="#03A9AA"/>
<path d="M43.9873 59.3387C43.9873 59.9796 43.8155 60.5 43.4766 60.8999C43.1376 61.2998 42.6842 61.4974 42.1304 61.4974C41.5767 61.4974 41.1232 61.2998 40.7796 60.8999C40.4359 60.5 40.2688 59.9844 40.2688 59.3387V54.5781H38.0444V59.5122C38.0444 60.7457 38.4167 61.7383 39.1661 62.49C39.9156 63.2416 40.9037 63.6175 42.1304 63.6175C43.3572 63.6175 44.3453 63.2416 45.0948 62.49C45.8442 61.7383 46.2165 60.7457 46.2165 59.5122V54.5781H43.9921V59.3387H43.9873Z" fill="#03A9AA"/>
<path d="M53.5819 58.934C53.3051 58.7461 52.9996 58.5822 52.6654 58.4473C52.3313 58.3124 51.9924 58.2016 51.6582 58.11C51.3241 58.0185 51.0186 57.9269 50.7417 57.8354C50.4649 57.7438 50.2405 57.6234 50.0687 57.474C49.8968 57.3294 49.8109 57.1512 49.8109 56.9488C49.8109 56.7031 49.9207 56.5055 50.1403 56.3513C50.3598 56.1971 50.6558 56.12 51.0281 56.12C51.916 56.12 52.6368 56.4477 53.1809 57.0982L54.4364 55.7683C54.1022 55.3057 53.6392 54.9492 53.0377 54.6938C52.4363 54.4384 51.7489 54.3131 50.9708 54.3131C49.9159 54.3131 49.0901 54.5685 48.4982 55.0841C47.9063 55.5996 47.6103 56.2164 47.6103 56.944C47.6103 57.2813 47.6628 57.5848 47.7726 57.8547C47.8776 58.1293 48.0256 58.3558 48.2022 58.5389C48.3836 58.722 48.5889 58.8858 48.8276 59.0304C49.0615 59.1749 49.3097 59.2954 49.5722 59.3917C49.8348 59.4881 50.0925 59.5748 50.3503 59.6567C50.6081 59.7387 50.8563 59.8158 51.0902 59.8928C51.3241 59.9699 51.5341 60.0567 51.7107 60.1434C51.8921 60.235 52.0353 60.3458 52.1403 60.4759C52.2454 60.606 52.3026 60.7602 52.3026 60.924C52.3026 61.2083 52.1881 61.4299 51.9637 61.5937C51.7394 61.7576 51.4195 61.8395 51.0043 61.8395C49.9732 61.8395 49.1187 61.4636 48.4505 60.7168L47.2141 62.1527C47.6056 62.6152 48.1163 62.9766 48.7416 63.2465C49.367 63.5115 50.083 63.6464 50.8849 63.6464C52.0258 63.6464 52.9136 63.3814 53.5533 62.8513C54.1929 62.3213 54.508 61.666 54.508 60.8806C54.508 60.4325 54.422 60.0422 54.2502 59.7097C54.0784 59.3773 53.854 59.1171 53.5771 58.9292" fill="#03A9AA"/>
<path d="M62.1264 60.8083C61.6872 61.295 61.1335 61.5359 60.4604 61.5359C59.7874 61.5359 59.2432 61.2902 58.8041 60.8035C58.3649 60.3169 58.1453 59.7146 58.1453 59.0014C58.1453 58.2883 58.3649 57.6764 58.8088 57.1801C59.2528 56.6886 59.8017 56.438 60.4604 56.438C61.1192 56.438 61.6872 56.6838 62.1264 57.1801C62.5655 57.6715 62.7851 58.2787 62.7851 59.0014C62.7851 59.7242 62.5655 60.3217 62.1264 60.8083ZM63.7875 55.6382C62.9761 54.7612 61.9832 54.3228 60.8089 54.3228C59.7301 54.3228 58.8422 54.7323 58.1453 55.5466V54.5829H55.9209V67H58.1453V62.5141C58.8041 63.2754 59.6919 63.656 60.8089 63.656C62.0118 63.656 63.0142 63.2079 63.8114 62.3165C64.6086 61.4251 65.0048 60.3072 65.0048 58.9725C65.0048 57.6378 64.599 56.5103 63.7875 55.6334" fill="#03A9AA"/>
<path d="M38.4358 29.2911C38.4358 41.5877 48.3455 51.5955 60.5321 51.5955H64.9857V40.6288H60.5321C54.3409 40.6288 49.3049 35.5454 49.3049 29.2959C49.3049 23.3837 53.8158 18.5172 59.544 18.0064C62.6037 17.6932 64.9857 15.0864 64.9857 11.9159V6.99152H60.5321C48.3502 6.99152 38.4358 16.9945 38.4358 29.2959" fill="#03A9AA"/>
<path d="M25.5904 15.9827H14.5542V27.1228H25.5904V15.9827Z" fill="#03A9AA"/>
<path d="M14.5542 15.9827H0V27.1228H14.5542V15.9827Z" fill="#1988C8"/>
<path d="M25.5904 0H20.6165C17.2703 0 14.5542 2.74168 14.5542 6.11938V15.9827H25.5904V0Z" fill="#1988C8"/>
<path d="M14.5542 43.1103H19.5138C22.86 43.1103 25.5761 40.3686 25.5761 36.9909L25.5904 37.0295V27.1277H14.5542V43.1103Z" fill="#1988C8"/>
<path d="M38.4358 15.9827H25.5905V27.1228H38.536C39.2377 19.7988 43.4622 13.506 49.4672 9.98375V0H38.431V15.9827H38.4358Z" fill="#1988C8"/>
</g>
<defs>
<clipPath id="clip0_203_522">
<rect width="65" height="67" fill="white"/>
</clipPath>
</defs>
</svg>
