<svg width="28" height="28" viewBox="0 0 28 28" fill="none" xmlns="http://www.w3.org/2000/svg">
<path d="M11.3898 6.56C11.0316 2.44062 6.73415 0.419374 6.55227 0.336874C6.38225 0.25695 6.19171 0.231414 6.00665 0.263749C1.0454 1.08687 0.299146 3.97437 0.269146 4.09437C0.22833 4.2616 0.234821 4.43688 0.287896 4.60062C6.2054 22.9606 18.5035 26.3638 22.546 27.4831C22.8573 27.5694 23.1141 27.6388 23.3091 27.7025C23.5317 27.7752 23.7734 27.7611 23.986 27.6631C24.1098 27.6069 27.031 26.2306 27.7454 21.7419C27.7771 21.5459 27.7456 21.345 27.6554 21.1681C27.5916 21.0444 26.0635 18.1362 21.826 17.1087C21.6823 17.072 21.5317 17.0707 21.3874 17.105C21.243 17.1393 21.1091 17.2081 20.9973 17.3056C19.6604 18.4475 17.8135 19.6644 17.0166 19.79C11.6748 17.1781 8.69165 12.1662 8.57915 11.2156C8.51352 10.6812 9.7379 8.80437 11.146 7.27812C11.2345 7.18207 11.3019 7.06855 11.3439 6.94487C11.3859 6.82118 11.4015 6.69008 11.3898 6.56Z" fill="white"/>
</svg>
