<svg width="21" height="21" viewBox="0 0 21 21" fill="none" xmlns="http://www.w3.org/2000/svg">
<g clip-path="url(#clip0_203_543)">
<path d="M20.4222 20.4222C19.6519 21.1926 18.4032 21.1926 17.6328 20.4222L14.1522 16.9415C12.7212 17.8595 11.0296 18.4065 9.20325 18.4065C4.1208 18.4065 0 14.2862 0 9.20321C0 4.12018 4.1208 0 9.20325 0C14.2864 0 18.4065 4.1201 18.4065 9.20321C18.4065 11.029 17.8589 12.7212 16.9415 14.1528L20.4222 17.6335C21.1926 18.4039 21.1926 19.6519 20.4222 20.4222ZM9.20325 2.62947C5.57292 2.62947 2.62951 5.57222 2.62951 9.20317C2.62951 12.8341 5.57296 15.7769 9.20325 15.7769C12.8342 15.7769 15.7769 12.8341 15.7769 9.20317C15.7769 5.57222 12.8342 2.62947 9.20325 2.62947Z" fill="#E9714C"/>
</g>
<defs>
<clipPath id="clip0_203_543">
<rect width="21" height="21" fill="white"/>
</clipPath>
</defs>
</svg>
